<svg width="90" height="37" viewBox="0 0 90 37" fill="none" xmlns="http://www.w3.org/2000/svg">
<g clip-path="url(#clip0_430_5652)">
<path d="M7.95848 16.9086H18.8894V23.8322C14.1223 23.9462 9.36238 24.1072 5.13802 21.1854C8.22443 25.5437 8.00009 31.6387 7.81375 35.465C7.14075 35.465 6.46051 35.465 5.77846 35.465C4.21354 35.465 2.64863 35.4307 1.08552 35.4795C0.298542 35.5048 -0.00358622 35.3276 3.20781e-05 34.4483C0.0325968 24.0873 0.0271693 13.7263 0.00726868 3.3653C0.00726868 2.64707 0.171901 2.36665 0.949836 2.36846C7.4483 2.3956 13.9468 2.39379 20.4452 2.36846C21.1798 2.36484 21.3661 2.62717 21.3552 3.31283C21.3191 5.29385 21.3154 7.27668 21.357 9.25951C21.3715 9.96508 21.1598 10.1858 20.4398 10.1804C16.6189 10.1478 12.798 10.1659 8.97703 10.1659C8.655 10.1659 8.33479 10.1659 7.95667 10.1659V16.9086H7.95848Z" fill="white"/>
<path d="M82.233 35.414V1.47977H89.9201C89.9418 1.82713 89.978 2.14373 89.978 2.46214C89.9816 13.1217 89.9708 23.7812 89.9997 34.4407C90.0015 35.2892 89.7428 35.5063 88.9269 35.4827C87.0038 35.4267 85.077 35.4665 83.1521 35.4628C82.859 35.4628 82.5677 35.4339 82.233 35.4158V35.414Z" fill="white"/>
<path d="M54.0467 16.2082C53.3647 16.0816 52.8165 15.964 52.2629 15.879C47.8124 15.2005 44.4872 17.6338 44.1109 22.1368C43.8359 25.4186 43.9372 28.733 43.8829 32.031C43.8649 33.1346 43.8793 34.24 43.8793 35.4033H36.1561C36.1344 35.0976 36.0982 34.8117 36.0982 34.5259C36.0946 26.6886 36.1072 18.8514 36.0783 11.0123C36.0747 10.1874 36.3026 9.92866 37.1402 9.95037C39.3293 10.0065 41.522 9.96846 43.8413 9.96846C43.9589 13.9594 42.8734 17.6754 41.9327 21.4113C42.0213 21.4367 42.1118 21.4602 42.2004 21.4855C42.2818 21.2955 42.3813 21.1128 42.4447 20.9156C43.0851 18.9183 43.6441 16.8903 44.3841 14.9291C44.8346 13.7369 45.4424 12.5646 46.1842 11.5279C48.0259 8.95353 50.8536 8.70025 53.5474 9.33526C53.7356 9.38049 54.025 9.6012 54.0287 9.74232C54.0594 11.8608 54.0504 13.9793 54.0504 16.201L54.0467 16.2082Z" fill="white"/>
<path d="M31.9442 35.465C30.0898 35.465 28.2644 35.465 26.4371 35.465C24.9609 35.465 24.2227 34.7298 24.2227 33.2596C24.2227 25.8746 24.2372 18.4879 24.2028 11.1029C24.1992 10.1984 24.4362 9.91252 25.3643 9.9487C27.3164 10.0229 29.2739 9.98669 31.2278 9.96317C31.7832 9.95594 32.0401 10.088 32.0383 10.7067C32.022 18.7828 32.0274 26.8588 32.0238 34.9349C32.0238 35.0778 31.9804 35.2207 31.9424 35.465H31.9442Z" fill="white"/>
<path d="M28.1127 0C29.5817 0.0307555 30.8915 0.473997 31.9263 1.5414C33.276 2.93263 33.2705 4.91365 31.9535 6.31212C30.0539 8.32933 26.3198 8.37817 24.3804 6.41163C22.9638 4.97516 22.9765 2.83494 24.4347 1.44008C25.4568 0.463142 26.7069 0.0289464 28.1127 0.00180915V0Z" fill="white"/>
</g>
<defs>
<clipPath id="clip0_430_5652">
<rect width="44.828" height="18.1648" fill="white" transform="scale(2.00767)"/>
</clipPath>
</defs>
</svg>
